<svg version="1" xmlns="http://www.w3.org/2000/svg" width="341.333" height="341.333" viewBox="0 0 256.000000 256.000000"><path d="M23.2 11c-8.6 5.2-13.8 13.6-12.6 20.3.7 4.4 2.7 6.5 35.7 38 7.7 7.3 17.8 17 22.5 21.5 4.8 4.6 14.4 13.8 21.3 20.4l12.7 12.1-1.6 3.6c-1 2.4-1.6 6.6-1.6 12.3 0 8 .3 9.2 3.7 16.2 3.9 7.7 11.8 16 16.5 17.2 1.2.4 2.2 1.1 2.2 1.7 0 .6.3.8.6.4.3-.3 2.2 0 4.2.7 4.3 1.5 14.2 2.1 14.2.9 0-.4-1.8-3.2-4-6.1-2.2-2.9-4-5.5-4-5.7 0-.3-1.8-2.9-4-5.8s-4.7-6.1-5.5-7.1c-2.3-3-2.9-8.1-1.3-11.2 1.6-3.4 17.9-15.1 21.7-15.6 4.8-.7 7.6 1.9 17.6 16 9.2 12.9 11.3 14.8 11.8 11.1.2-.8.6-1.9 1-2.6.4-.7.9-4.3 1.1-8.1.9-21.5-14.3-38.7-35.4-40-4.1-.2-9.1 0-11 .6-3.5.9-3.6.9-11.5-7.3C110.9 87.8 88.4 64.2 72 47 35.8 9 35.8 9 29.1 9c-1.4 0-4.1.9-5.9 2zm14.4 13.7c1.8 1.9 2.3 3.4 2 6-1.2 10.9-16.5 10.5-16.6-.5 0-7.5 9.4-11.1 14.6-5.5z"/><path d="M115.6 20.7c-.3 1.6-.9 5.5-1.3 8.8-.4 3.3-.8 6.3-.9 6.7-.1.5-.2 1.6-.3 2.6-.1 1.3-1.8 2.2-6.8 3.5-3.8 1-8.9 2.7-11.5 4L90 48.5l3.8 4.1c2 2.3 6.9 7.6 10.7 11.8 7.7 8.5 6 7.9 17 5.9 4.3-.8 16.2-.7 21.4.1 18.2 3 36.8 17.1 45.1 34.1 9.3 19 8.6 40.8-1.7 59.5-13.1 23.5-43.4 36.5-69.8 30-14.3-3.6-29.7-14.6-37.7-27-3.9-6-7.5-14-8.2-18-.3-1.4-.5-2.7-.6-3-.2-.3-.2-.9-.1-1.4.1-.4-.2-1.3-.7-2-.9-1.2-.8-16.6.1-20.6.3-1.4.8-3.5 1.1-4.8.3-1.3.8-3.2 1.1-4.1.4-1.2-.2-2.4-1.8-3.4-1.3-.9-3-2.2-3.8-2.9-.8-.8-3-2.5-4.9-3.8-1.9-1.3-3.7-2.7-4-3-1.4-1.6-8.9-7-9.8-7-.5 0-1.5 1.3-2.1 3-.6 1.7-1.7 4.5-2.3 6.2-.7 1.8-1.3 3.5-1.4 3.8-1 6.1-1.8 8-3.3 8.1-.9 0-2.3.2-3.1.3-.8.2-4.2.6-7.5 1-11.4 1.4-10.3-.4-10.2 17.2 0 8.5.3 15.7.6 15.8.3.2 3.3.7 6.6 1 6.8.7 14.9 1.7 15.2 2 .1.1.4 1.6.8 3.3.9 5.3 5.7 17.4 9.3 23.6l3.4 5.8-2.4 3.4c-1.2 1.8-4.3 5.8-6.6 9-5.1 6.6-6 4.6 8.7 19.1l9.5 9.3 5.5-4.7c3.1-2.6 5.8-4.9 6.1-5.2.3-.3 1.7-1.3 3.2-2.3 2.6-1.6 2.8-1.6 8.5 1.6 7 4 17.6 8.3 22.6 9.2 2.1.4 3.9 1.1 4.2 1.5.4.7 1.6 8.7 2.8 18.5l.4 3 15.3.3c8.4.1 15.7-.1 16.1-.5.5-.5 1.1-3.7 1.4-7.3.3-3.6.8-7.4 1-8.5.2-1.1.4-2.9.4-4.1.1-1.1.7-2.1 1.4-2.1 4.6 0 26.7-9.1 30.2-12.4.5-.5 1.2-.9 1.6-.9.9 0 16.1 11.9 17 13.3.4.5 5.9-4.4 12.4-10.8 6.4-6.5 11.2-12.1 10.7-12.4-.6-.3-3.7-4.1-7.1-8.4-5.6-7.3-5.9-8-4.8-10.5.6-1.5 1.5-2.9 1.8-3.2 1.2-.9 8.7-19.4 9.4-23.3.9-4.4 1.3-4.7 6.8-5.3 2.3-.2 5.3-.6 6.6-.8 1.3-.3 4.1-.6 6.2-.8l3.9-.2v-31.4l-2.7-.6c-3.2-.6-14.2-2.1-18.3-2.5-.9 0-1.6-.9-1.7-1.9-.4-4.6-5.2-16.5-11.6-28.6-1.8-3.4-1.3-4.4 7-14.3 2.4-2.8 4.3-5.5 4.3-6 0-1-21-22.3-22-22.3-.6 0-2.4 1.4-11.7 8.9l-5.5 4.3-9.6-4.8c-12.5-6.2-12.2-6-16.2-7-1.9-.4-3.8-.9-4.2-1-.5-.1-1.5-.2-2.4-.3-1 0-1.4-.7-1.1-1.5.3-.8.3-1.7-.1-2-.3-.4-.7-1.4-.8-2.4-.4-2.4-1.4-11.2-1.7-14.2l-.2-2.5-15.7-.3-15.6-.2-.6 2.7z"/></svg>